<?xml version="1.0" encoding="UTF-8"?>
<svg xmlns="http://www.w3.org/2000/svg" width="800" height="600" viewBox="0 0 800 600" role="img" aria-label="Soleil">
  <defs>
    <linearGradient id="bg" x1="0" x2="1" y1="0" y2="1">
      <stop offset="0%" stop-color="hsl(29 78% 62%)" stop-opacity=".22"/>
      <stop offset="100%" stop-color="hsl(241 78% 62%)" stop-opacity=".34"/>
    </linearGradient>
    <filter id="soft" x="-10%" y="-10%" width="120%" height="120%">
      <feDropShadow dx="0" dy="8" stdDeviation="10" flood-color="#1f2937" flood-opacity=".15"/>
    </filter>
  </defs>
  <rect width="800" height="600" fill="url(#bg)"/>
  <circle cx="115" cy="105" r="80" fill="#fff" opacity=".45"/>
  <circle cx="700" cy="90" r="105" fill="#fff" opacity=".25"/>
  <path d="M0 505 C150 450 260 540 410 495 C560 450 650 495 800 450 V600 H0Z" fill="#f8fafc" opacity=".82"/>
  <g filter="url(#soft)">
    
    <circle cx="585" cy="165" r="86" fill="#facc15"/>
    <path d="M150 315 C185 230 285 225 330 295 C370 235 500 250 522 338 C605 344 652 410 620 470 H145 C80 452 82 338 150 315Z" fill="#e0f2fe" stroke="#334155" stroke-width="7"/>
    <path d="M160 505 l-18 42" stroke="hsl(313 78% 62%)" stroke-width="8" stroke-linecap="round"/><path d="M215 505 l-18 42" stroke="hsl(6 78% 62%)" stroke-width="8" stroke-linecap="round"/><path d="M270 505 l-18 42" stroke="hsl(59 78% 62%)" stroke-width="8" stroke-linecap="round"/><path d="M325 505 l-18 42" stroke="hsl(112 78% 62%)" stroke-width="8" stroke-linecap="round"/><path d="M380 505 l-18 42" stroke="hsl(165 78% 62%)" stroke-width="8" stroke-linecap="round"/><path d="M435 505 l-18 42" stroke="hsl(218 78% 62%)" stroke-width="8" stroke-linecap="round"/><path d="M490 505 l-18 42" stroke="hsl(271 78% 62%)" stroke-width="8" stroke-linecap="round"/><path d="M545 505 l-18 42" stroke="hsl(324 78% 62%)" stroke-width="8" stroke-linecap="round"/><path d="M600 505 l-18 42" stroke="hsl(17 78% 62%)" stroke-width="8" stroke-linecap="round"/>
  
  </g>
</svg>
